PathFileType	4	(X/Y/Z)	Patient4_TMGait_0pt8_01_right_51.trc.trc
DataRate	CameraRate	NumFrames	NumMarkers	Units	OrigDataRate	OrigDataStartFrame	OrigNumFrames
88.607594936709	88.607594936709	4	33	mm	88.607594936709	1	       141
Frame#	Time	Sacral			L.Shoulder			Chest			R.Shoulder			Neck			R.ASIS			L.ASIS			R.Thigh.Superior			R.Thigh.Lateral			R.Thigh.Inferior			R.Patella			L.Thigh.Superior			L.Thigh.Lateral			L.Thigh.Inferior			L.Patella			L.Shank.Superior			L.Shank.Lateral			L.Shank.Inferior			R.Shank.Superior			R.Shank.Lateral			R.Shank.Inferior			R.Heel			R.Midfoot.Superior			R.Midfoot.Lateral			R.Toe			L.Heel			L.Midfoot.Lateral			L.Midfoot.Superior			L.Toe			L.Elbow			L.Wrist			R.Elbow			R.Wrist			
		X1	Y1	Z1	X2	Y2	Z2	X3	Y3	Z3	X4	Y4	Z4	X5	Y5	Z5	X6	Y6	Z6	X7	Y7	Z7	X8	Y8	Z8	X9	Y9	Z9	X10	Y10	Z10	X11	Y11	Z11	X12	Y12	Z12	X13	Y13	Z13	X14	Y14	Z14	X15	Y15	Z15	X16	Y16	Z16	X17	Y17	Z17	X18	Y18	Z18	X19	Y19	Z19	X20	Y20	Z20	X21	Y21	Z21	X22	Y22	Z22	X23	Y23	Z23	X24	Y24	Z24	X25	Y25	Z25	X26	Y26	Z26	X27	Y27	Z27	X28	Y28	Z28	X29	Y29	Z29	X30	Y30	Z30	X31	Y31	Z31	X32	Y32	Z32	X33	Y33	Z33	

1	57.440000000000	880.527904603745	1014.317169733914	461.077712388829	1072.378691290686	1439.592355613055	284.128438014605	1173.999139661695	1364.382506658797	443.795304291417	1092.897905251536	1436.147827114991	620.156883524582	1055.470439329556	1498.431259731305	441.297141557538	1105.977247843136	945.311651705712	572.353871996651	1087.096247709756	962.443451679267	300.483087907506	1182.091912466493	769.913986382470	548.968203058713	1135.103311162160	652.349184830404	625.685197008054	1225.987753572330	608.016410009215	549.966885743525	1237.123739587148	492.073487075293	574.848885603892	1135.287242467088	752.200526374895	321.186351268713	1037.601587207428	638.362421373808	273.609257553705	1124.762395636918	558.496272350723	330.703932494589	1124.581456965030	490.243978513824	342.860548376435	1098.169677312571	419.353111169324	338.712961452892	1006.563758433202	303.585531742709	296.353897115933	1061.589373656909	194.313444038129	367.377819098565	1151.349135105711	425.049724744207	580.630267091253	1022.571419731599	405.765055078623	636.764861572893	994.676684879698	298.760992728527	589.867785690234	788.401963167909	267.441977945292	554.169885971394	944.470041751880	184.773828697045	602.658706568397	834.035849742638	200.143620579128	630.591167731530	990.134359113083	64.553069723897	632.203851471491	936.381841522421	38.957170845323	421.656234843502	1005.523441147307	36.192046076767	336.803886499137	1090.213100648117	96.361580766675	359.147203092335	1217.211274057769	43.387682984622	323.719576583938	1078.231006921742	1090.110756388924	153.379280543649	1209.185251535946	863.278437537707	151.557706785397	1066.178486171444	1082.571016384090	723.455847447464	1263.752466274782	914.159120786064	702.020569538663	
2	57.451285714286	878.848100275513	1015.079652900737	458.531055981907	1074.617068786617	1440.177848774732	283.836393591259	1173.835106625282	1364.229126250632	444.570607569158	1090.845003709504	1435.913282760958	619.961338145312	1055.768287326648	1498.780131346563	440.933459902090	1103.623543269529	946.577004767423	572.590332658547	1087.622977921801	963.179075634723	300.135319218655	1182.980624785155	775.259806478277	548.488989829573	1140.005836840425	656.875026975992	625.600637002160	1231.514207558649	614.762823987505	549.628792897263	1246.270005018602	499.422567906748	574.696124718877	1131.867316292325	751.073820737650	322.388897273772	1033.121619943843	638.490189149310	273.220584170947	1118.280825906113	557.580496631766	331.209395855698	1116.880282720298	489.504492236222	343.437005091314	1090.397107749009	419.003942788067	338.875473022344	998.431024880071	303.675705770783	296.189019007104	1052.647875333013	194.160760540242	367.410763408701	1162.771878234828	429.894805229060	580.647824750927	1035.111871584300	405.896284024821	636.892308340225	1010.939006145458	298.062568740581	589.872058111918	806.071355482796	259.344390047487	554.588704076982	965.063044410552	182.613886369607	602.843096446244	854.238177318709	193.589262911379	630.656647838992	1014.950180776679	63.879019257239	631.541094673974	926.779679943354	39.011046328016	421.570063145826	995.997768816771	36.182566269411	336.757746903773	1080.744784813824	96.334367189230	359.091066861316	1207.694810810938	43.259331975039	323.705648685922	1088.915306675485	1093.298192136191	149.402811705577	1230.665261141200	873.948394255596	148.763366056547	1056.705150297529	1082.521647577719	722.402606259583	1235.179049035262	897.758895447841	705.827435859723	
3	57.462571428571	877.199770682414	1015.815735347211	456.046880619431	1076.845093821651	1440.742437285671	283.576914847481	1173.683184211921	1364.059257340537	445.358485989711	1088.823648717537	1435.648443904572	619.789958488690	1056.069207804741	1499.102875169394	440.595489031604	1101.300419424121	947.781064360549	572.823630439920	1088.089414739721	963.854411659792	299.817535564040	1183.822182958257	780.499400873382	548.041360487608	1144.779607304813	661.318867892070	625.527921179675	1236.887688441515	621.375625979758	549.314389926005	1255.173588765083	506.660355384941	574.576480473636	1128.473074059060	749.950245763898	323.579529513438	1028.695998425855	638.602374404111	272.839179494207	1111.872267652161	556.667622003437	331.703635530592	1109.273927544837	488.776769799289	343.990039621434	1082.724364432710	418.654466658339	339.028793107187	990.404329677189	303.757061354784	296.025089856930	1043.821467330051	194.005369499888	367.442477356764	1173.982524911781	434.615949452807	580.684461693408	1047.475526037197	405.849796319701	637.065744304027	1027.066664691162	297.194110664095	589.928486579310	823.624804551678	251.015230229694	555.110831436429	985.563331836696	180.274589190552	603.084738013001	874.365806310158	186.839240163066	630.825432506467	1039.716082759812	63.061263185321	630.948891258268	917.302889119567	39.064533982713	421.485620949209	986.595572282781	36.173223147595	336.711725358108	1071.397296405841	96.307283388346	359.038014151522	1198.302271673585	43.134311162110	323.692779173201	1099.335860114423	1096.459297601195	145.521122564963	1251.755395259539	884.633887816265	146.074620157803	1047.387101999118	1082.449939634171	721.350689159124	1206.755616594152	881.970401016978	709.564933405282	
4	57.473857142857	875.623479923781	1016.488724808698	453.683076091908	1079.067089753936	1441.257006100840	283.394134634007	1173.562694537201	1363.842504198736	446.184760590378	1086.866627554681	1435.311952996036	619.675850047987	1056.384256543492	1499.362105069675	440.319013896435	1099.041141191118	948.854254850789	573.054064214885	1088.455927149593	964.406609880860	299.556670991670	1184.547429471582	785.478018609659	547.660584290910	1149.240083950562	665.546584571196	625.484395027844	1241.902211760081	627.657790890117	549.056832088213	1263.546681739694	513.650133171989	574.518199448377	1125.103904810995	748.810861122084	324.738092523856	1024.315121945428	638.685473914902	272.469286651084	1105.528337446010	555.749326750637	332.170927692926	1101.769240474700	488.064303044619	344.489552499044	1075.150064610925	418.303093188058	339.160970924129	982.482444536297	303.825326814671	295.860224779751	1035.115976266999	193.846601602436	367.469109462734	1184.788097423856	439.082273359354	580.765527919592	1059.613002002984	405.388766160789	637.359594883318	1043.131164317773	295.968888648775	590.110003665699	841.316786555952	242.085231622023	555.871770116581	1006.198288770070	177.596217592101	603.468409553780	894.727978674349	179.635585158221	631.227810089541	1064.749686444796	62.085387699661	630.517142454680	907.965652937281	39.118106705545	421.404676033695	977.327321151332	36.164095101719	336.666691214764	1062.180077040488	96.280371679322	358.989774338510	1189.044431288141	43.014510980825	323.682037386747	1109.295597670847	1099.581882562936	141.816254424631	1272.185868884098	895.520730681368	143.607435358564	1038.232967364336	1082.388851895091	720.306632861740	1178.421456132844	867.422557503378	713.167975723754	
